:SAMPLES-PER-SECOND 30
:FULLY-SPECIFIED
:DEGREES
554
root  -2.95783 40.4434 -7.32312 -10.8828 -83.8492 8.27942
RightUpLeg  -7.78872 -12.0574 -10.9267
RightLeg  12.0483 -0.988474 0.447022
RightFoot  -2.47709 -0.485701 6.04547
RightToes  0.00048216 0.542163 -0.142577
Spine  12.3692 0.709274 2.83785
Spine1  4.03982 1.4851 -2.37446
HEad  -7.729 -0.868966 -2.32467
LeftShoulder1  4.87036 -8.24951 -35.3329
LeftArm  -14.9776 20.256 -21.6944
LeftForeArm  19.6448 -8.46824 -3.31646
LeftHand  -0.25398 0.0180481 5.50724
RightShoulder  3.78888 7.02374 30.0252
RightArm  -17.9615 -24.1634 30.8498
RightForeArm  -0.281958 11.3355 4.55624
RightHand  -5.58537 15.2018 -31.2011
LeftUpLeg  1.23723 8.05685 7.50286
LeftLeg  9.58201 4.56757 -1.5218
LeftFoot  -7.98045 0.242058 -6.61573
LeftToes  1.06245e-005 4.65855e-005 -8.18504e-006
555
root  -2.56789 40.4892 -6.7181 -7.03986 -86.0133 3.74014
RightUpLeg  -8.38383 -10.8797 -9.16836
RightLeg  14.6426 0.269647 0.116528
RightFoot  -3.85899 -0.406936 5.78553
RightToes  0.00048216 0.542163 -0.142577
Spine  12.978 0.928088 3.07593
Spine1  3.40561 1.77936 -2.75193
HEad  -8.78012 -4.95547 -1.02646
LeftShoulder1  3.98701 -7.2091 -31.1227
LeftArm  -15.4261 20.9913 -19.0083
LeftForeArm  17.7646 -7.82489 -2.83876
LeftHand  -0.25398 0.0180481 5.50724
RightShoulder  3.2981 6.43755 27.1346
RightArm  -19.2243 -22.7717 26.2487
RightForeArm  -2.48729 10.084 4.11765
RightHand  -5.77582 15.6771 -31.4945
LeftUpLeg  1.734 8.0324 7.3406
LeftLeg  9.94161 6.6434 -1.49758
LeftFoot  -8.59053 0.196976 -6.06738
LeftToes  1.06245e-005 4.65855e-005 -8.18504e-006
556
root  -2.25303 40.5753 -6.19877 -2.69458 -87.4694 -1.11429
RightUpLeg  -8.70083 -10.7781 -7.33759
RightLeg  18.6089 -2.18788 -1.06176
RightFoot  -5.22911 -0.252943 4.05245
RightToes  0.00048216 0.542163 -0.142577
Spine  12.9304 1.01267 2.70762
Spine1  3.02137 1.72209 -2.24794
HEad  -8.79251 -7.88641 -0.370391
LeftShoulder1  3.05283 -5.84908 -26.4471
LeftArm  -16.3063 21.9249 -16.1959
LeftForeArm  15.7553 -8.26871 -2.31452
LeftHand  -0.25398 0.0180481 5.50724
RightShoulder  2.7809 5.71295 24.0029
RightArm  -19.4888 -20.9225 21.0975
RightForeArm  -4.6556 9.47979 3.92657
RightHand  -5.75618 15.6366 -31.4499
LeftUpLeg  2.16633 8.02575 6.8612
LeftLeg  9.72101 8.22644 -1.42908
LeftFoot  -8.36129 0.18582 -5.23423
LeftToes  1.06245e-005 4.65855e-005 -8.18504e-006
557
root  -2.03177 40.6535 -5.75027 0.883057 -88.3804 -4.81604
RightUpLeg  -8.48102 -10.8002 -5.7525
RightLeg  21.9684 -4.70653 -2.28298
RightFoot  -6.61721 -0.16981 3.07568
RightToes  0.00048216 0.542163 -0.142577
Spine  12.0995 0.996109 2.53463
Spine1  2.622 1.66151 -2.1106
HEad  -7.80742 -10.0667 0.169971
LeftShoulder1  2.25106 -4.47932 -21.782
LeftArm  -17.1134 22.4881 -12.8265
LeftForeArm  13.901 -9.58797 -1.94234
LeftHand  -0.25398 0.0180481 5.50724
RightShoulder  2.29122 4.90464 20.9057
RightArm  -18.8666 -19.1082 15.7661
RightForeArm  -6.80905 9.24931 4.03979
RightHand  -5.65673 15.4158 -31.2481
LeftUpLeg  2.33256 7.91666 6.14365
LeftLeg  9.26255 9.45904 -1.37697
LeftFoot  -7.90023 0.178253 -4.34829
LeftToes  1.06245e-005 4.65855e-005 -8.18504e-006
558
root  -1.916 40.6838 -5.35817 7.4541 -89.1731 -11.4091
RightUpLeg  -7.10985 -11.0935 -4.3127
RightLeg  22.8786 -3.67553 -1.92734
RightFoot  -7.93687 -0.17396 4.07762
RightToes  0.00048216 0.542163 -0.142577
Spine  10.7998 0.985068 2.88675
Spine1  2.2535 1.78431 -2.78938
HEad  -6.38908 -11.6156 0.58789
LeftShoulder1  1.60441 -3.1889 -17.2278
LeftArm  -17.7841 22.5462 -9.40035
LeftForeArm  12.4808 -11.6845 -1.86094
LeftHand  -0.25398 0.0180481 5.50724
RightShoulder  1.82993 4.02857 17.7164
RightArm  -17.9127 -17.1474 10.8076
RightForeArm  -9.04233 8.94953 4.30486
RightHand  -5.45632 14.9691 -30.8312
LeftUpLeg  2.44506 7.80418 5.58038
LeftLeg  9.0402 10.4116 -1.46472
LeftFoot  -7.87582 0.163145 -3.82661
LeftToes  1.06245e-005 4.65855e-005 -8.18504e-006
559
root  -1.88883 40.6854 -5.02904 -14.9539 -89.6809 11.0126
RightUpLeg  -4.55914 -12.1626 -3.24692
RightLeg  20.826 -0.465289 -0.457764
RightFoot  -8.95425 -0.162355 4.79404
RightToes  0.00048216 0.542163 -0.142577
Spine  9.09197 1.05161 2.89325
Spine1  2.17356 1.90612 -3.30825
HEad  -4.93065 -12.6205 0.577322
LeftShoulder1  1.08259 -1.93715 -12.7575
LeftArm  -18.4022 22.1028 -6.6762
LeftForeArm  11.4285 -13.96 -2.09935
LeftHand  -0.25398 0.0180481 5.50724
RightShoulder  1.3651 3.01336 14.0468
RightArm  -17.385 -14.8394 7.08652
RightForeArm  -11.5617 8.33587 4.54772
RightHand  -5.21087 14.3398 -30.4115
LeftUpLeg  2.62202 7.60368 4.91373
LeftLeg  8.80398 11.2547 -1.74447
LeftFoot  -8.01203 0.149101 -3.47686
LeftToes  1.06245e-005 4.65855e-005 -8.18504e-006
